<svg width="3840" height="672" viewBox="0 0 3840 672" fill="none" xmlns="http://www.w3.org/2000/svg">
<g clip-path="url(#clip0_1482_8)">
<mask id="mask0_1482_8" style="mask-type:luminance" maskUnits="userSpaceOnUse" x="0" y="0" width="3840" height="672">
<path d="M3840 0H0V672H3840V0Z" fill="white"/>
</mask>
<g mask="url(#mask0_1482_8)">
<mask id="mask1_1482_8" style="mask-type:luminance" maskUnits="userSpaceOnUse" x="0" y="0" width="3840" height="672">
<path d="M0 0H3840V672H0V0Z" fill="white"/>
</mask>
<g mask="url(#mask1_1482_8)">
<path d="M701.251 409.283V547.18H590.014V317.763H596.663C704.662 317.763 812.659 317.693 920.656 317.931C927.348 317.947 931.195 314.152 935.599 310.699C936.522 309.975 936.583 307.811 936.588 306.309C936.654 289.991 936.631 273.672 936.63 257.352C936.628 251.501 929.999 244.668 924.058 244.412C922.94 244.364 921.818 244.401 920.698 244.401H188.712H181.81V456.197H417.358V397.326H281.967V317.763H529.242C529.242 370.563 529.242 417.821 529.242 470.621C529.242 504.192 512.223 528.825 480.698 540.74C469.234 545.073 457.335 547.463 445.074 547.469C348.115 547.517 251.158 547.556 154.199 547.435C136.362 547.413 119.26 543.64 103.618 534.672C82.1071 522.34 70.8097 503.695 70.6977 478.892C70.4644 427.213 70.6018 375.534 70.5911 323.855C70.5858 292.656 70.5898 261.456 70.5911 230.256C70.5911 188.456 91.5658 163.201 132.866 155.939C141.635 154.396 150.664 153.7 159.574 153.696C435.888 153.581 712.203 153.641 988.518 153.521C1008.47 153.513 1022.07 164.217 1033.97 178.285C1043.36 189.392 1048.06 201.98 1047.83 217.004C1047.26 255.235 1047.67 293.48 1047.63 331.719C1047.61 343.764 1046.55 355.67 1042.21 367.076C1032.77 391.87 1014.03 404.604 988.479 408.26C982.652 409.095 976.688 409.237 970.786 409.241C882.947 409.301 795.11 409.283 707.271 409.283H701.251Z" fill="#CF212A"/>
<path d="M1566.4 318.001C1566.4 320.325 1566.4 316.11 1566.4 318.001V471.068C1566.4 505.049 1549.5 529.356 1517.52 541.306C1506.19 545.544 1494.45 547.865 1482.35 547.872C1385.23 547.921 1288.11 547.981 1191 547.82C1172.49 547.79 1154.82 543.638 1138.85 533.812C1119.08 521.646 1108.32 503.972 1108.2 480.67C1107.93 423.392 1108.05 366.112 1108.02 308.832C1108 281.792 1107.98 254.752 1108.03 227.712C1108.08 192.148 1125.02 169.447 1159.11 158.983C1171.16 155.284 1183.49 153.999 1196.04 154C1424.04 154.012 1652.03 154.009 1880.03 154.008C1881.46 154.008 1882.89 154.009 1884.69 154.009V244.778H1734.6V547.684H1623.82V245.113H1219.11V456.542H1454.7V397.805H1319.31V318.001H1566.4Z" fill="white"/>
<path d="M2446.58 484.479H2499.57C2490.57 458.804 2481.74 433.607 2473.02 408.691C2468.71 421.118 2464.35 433.775 2459.94 446.415C2455.55 459.014 2451.1 471.598 2446.58 484.479ZM2280.99 458.063C2289.48 458.063 2297.52 458.62 2305.43 457.868C2310.7 457.367 2316.21 455.783 2320.88 453.306C2332.02 447.402 2335.03 436.964 2334.17 425.202C2333.43 415.034 2328.19 407.856 2318.52 404.214C2306.31 399.615 2293.69 402.022 2280.99 401.292V458.063ZM2561.85 553.166C2551.31 553.166 2541.11 553.463 2530.94 553.046C2525.42 552.819 2522.24 548.823 2520.46 543.778C2517 533.992 2513.44 524.244 2510.15 514.403C2509.24 511.691 2508.01 510.678 2505.09 510.694C2483.66 510.814 2462.22 510.806 2440.79 510.699C2438.1 510.686 2436.84 511.556 2435.99 514.099C2432.79 523.635 2429.41 533.11 2426.04 542.584C2423.18 550.611 2419.44 553.292 2411.08 553.304C2392.36 553.334 2373.65 553.191 2354.94 553.374C2347.49 553.446 2342.28 550.646 2338.39 544.16C2328.46 527.572 2317.84 511.387 2308.13 494.676C2303.7 487.062 2298.04 483.591 2289.4 484.495C2286.75 484.771 2284.06 484.538 2280.95 484.538V552.959H2243.98V373.488C2244.28 373.272 2244.41 373.092 2244.54 373.094C2270.24 373.548 2295.94 373.886 2321.64 374.61C2326.01 374.731 2330.42 376.25 2334.67 377.584C2354.92 383.95 2368.1 396.772 2370.32 418.619C2372.52 440.259 2365.18 457.93 2346.71 470.204C2342.74 472.836 2338.29 474.722 2333.94 477.015C2347.73 487.582 2354.21 503.804 2363.89 517.655C2371.11 527.984 2377.63 538.795 2384.9 550.064C2385.83 547.84 2386.5 546.284 2387.12 544.702C2408.85 488.914 2430.61 433.135 2452.24 377.306C2453.52 374.007 2454.99 372.622 2458.71 372.731C2468.62 373.026 2478.54 372.915 2488.46 372.776C2491.04 372.739 2492.43 373.407 2493.42 375.967C2515.89 434.04 2538.44 492.079 2560.96 550.13C2561.29 550.986 2561.48 551.896 2561.85 553.166Z" fill="white"/>
<path d="M2807.45 523.687C2820.3 523.687 2832.62 524.327 2844.85 523.545C2866.11 522.184 2880.78 510.965 2887.99 490.981C2894.61 472.651 2894.58 453.909 2888.11 435.505C2881.47 416.608 2867.83 405.143 2848 402.967C2834.88 401.528 2821.5 402.517 2808.24 402.451C2808 402.449 2807.77 402.84 2807.45 403.124V523.687ZM2769.92 553.011V373.212C2771.17 373.072 2772.25 372.849 2773.32 372.849C2796.19 372.841 2819.06 372.561 2841.92 372.952C2865.41 373.352 2886.66 380.456 2903.95 396.883C2923.87 415.815 2931.61 439.709 2930.68 466.703C2929.1 511.98 2901.66 543.696 2857.18 551.84C2854.2 552.385 2851.16 552.951 2848.15 552.96C2822.27 553.048 2796.38 553.011 2769.92 553.011Z" fill="white"/>
<path d="M2700.13 492.702V373.098H2732.41V552.91C2724.66 552.91 2716.79 553.7 2709.21 552.57C2705.53 552.024 2701.65 548.469 2699.12 545.277C2671.44 510.294 2644 475.116 2616.5 439.99C2614.95 438.005 2613.38 436.033 2611.24 433.329V552.986H2578.98V373.352C2587.17 373.352 2595.46 372.689 2603.55 373.686C2606.67 374.07 2609.82 377.826 2612.11 380.718C2635.93 410.809 2659.57 441.037 2683.26 471.226C2688.68 478.126 2694.1 485.024 2700.13 492.702Z" fill="white"/>
<path d="M3235.09 402.355C3209.32 402.416 3191.14 415.73 3184.3 440.018C3182.72 445.66 3181.43 451.66 3181.58 457.458C3181.82 467.127 3182.08 477.098 3184.54 486.352C3191.17 511.272 3210.18 524.17 3237.36 523.668C3262.15 523.211 3280.19 509.126 3286.55 485.158C3289.58 473.732 3289.85 462.155 3288.5 450.435C3285.08 420.698 3264.72 402.283 3235.09 402.355ZM3327.25 470.487C3326.46 496.268 3314.81 523.335 3286.53 541.244C3246.5 566.586 3189.98 557.255 3161.95 521.422C3130 480.586 3135.41 399.128 3201.96 376.579C3238.06 364.346 3272.24 369.514 3300.98 396.435C3318.56 412.899 3327.69 437.648 3327.25 470.487Z" fill="white"/>
<path d="M3575.82 457.826C3585.05 457.826 3593.69 458.302 3602.24 457.634C3606.86 457.274 3611.64 455.551 3615.82 453.409C3625.91 448.229 3630.79 436.841 3629.18 423.903C3627.86 413.358 3621.38 405.241 3610.03 403.27C3599 401.355 3587.62 401.481 3576.21 400.698C3576 402.919 3575.84 403.849 3575.83 404.777C3575.82 422.351 3575.82 439.923 3575.82 457.826ZM3539.07 371.947C3565.72 372.869 3591.89 373.681 3618.05 374.781C3621.8 374.938 3625.55 376.302 3629.2 377.423C3650.11 383.839 3663.52 397.038 3665.46 419.53C3667.4 442.043 3659.06 459.866 3639.33 471.703C3636.06 473.666 3632.49 475.127 3629.1 476.799C3644.76 490.533 3652.87 509.838 3664.64 526.499C3670.6 534.93 3675.9 543.833 3681.83 553.055C3669 553.055 3656.92 553.315 3644.85 552.927C3639.94 552.77 3636.62 549.265 3634.06 545.061C3623.97 528.559 3613.36 512.361 3603.75 495.593C3598.99 487.298 3593.02 483.379 3583.6 484.495C3581.27 484.771 3578.88 484.537 3576.05 484.537V552.91H3539.07V371.947Z" fill="white"/>
<path d="M2213.53 395.148C2209.74 400.94 2206.11 406.942 2202.02 412.613C2198.65 417.272 2194.03 417.368 2187.86 414.417C2180.12 410.716 2172.39 406.67 2164.22 404.294C2153.53 401.189 2142.35 401.345 2131.47 404.08C2109.76 409.534 2094.47 427.704 2092.56 451.616C2091.76 461.689 2091.84 472.229 2093.89 482.065C2099.83 510.621 2122.42 527.524 2151.73 525.832C2159.87 525.361 2167.89 522.584 2175.95 520.805C2178.62 520.216 2179.73 518.665 2179.65 515.693C2179.43 507.072 2179.57 498.442 2179.57 488.996C2173.38 488.996 2167.38 489.008 2161.39 488.992C2153.35 488.97 2151.64 487.232 2151.63 479.085C2151.62 473.357 2151.63 467.628 2151.63 461.594H2213.03C2213.11 463.329 2213.25 464.882 2213.25 466.436C2213.26 488.028 2213.14 509.62 2213.36 531.21C2213.4 534.958 2212.04 536.942 2209.1 538.864C2187.65 552.845 2163.97 556.952 2138.93 554.726C2117.48 552.82 2098.03 545.613 2082.08 530.842C2057.9 508.453 2050.57 480.02 2054.64 448.29C2058.67 416.861 2074.7 393.458 2103.76 379.872C2121.44 371.609 2140.23 369.637 2159.51 371.492C2178.08 373.277 2195 379.284 2209.6 391.158C2210.6 391.964 2211.56 392.81 2212.49 393.682C2212.82 393.992 2213.03 394.43 2213.53 395.148Z" fill="white"/>
<path d="M3466.3 373.076H3503.38C3503.45 374.38 3503.55 375.458 3503.55 376.538C3503.55 412.202 3503.89 447.873 3503.4 483.53C3503.08 506.938 3494.41 526.898 3475.07 541.144C3458.98 552.996 3440.49 556.17 3420.98 555.12C3387.3 553.306 3361.87 532.525 3354.38 500.276C3352.94 494.097 3352.16 487.628 3352.12 481.285C3351.91 446.422 3352.01 411.556 3352.01 376.69C3352.01 375.6 3352.13 374.508 3352.21 373.138H3389.29V378.232C3389.29 411.497 3389.2 444.765 3389.37 478.029C3389.4 483.736 3389.88 489.584 3391.2 495.113C3395.69 513.84 3409.87 524.062 3429.66 523.436C3448.13 522.85 3461.65 511.397 3465.06 493.005C3465.99 488.016 3466.23 482.842 3466.25 477.752C3466.35 444.806 3466.3 411.86 3466.3 378.914V373.076Z" fill="white"/>
<path d="M3685.81 531.513C3689.49 525.552 3692.86 519.756 3696.57 514.185C3700.27 508.632 3705.42 507.861 3711.64 511.424C3718 515.071 3724.17 519.161 3730.85 522.113C3739.89 526.115 3749.52 526.236 3759.01 523.472C3767.9 520.885 3772.85 514.753 3774.13 505.599C3775.47 496.105 3772.08 488.764 3763.53 484.523C3757.71 481.635 3751.42 479.668 3745.27 477.473C3737.91 474.844 3730.44 472.532 3723.1 469.873C3685.06 456.101 3684.16 404.664 3712.56 383.615C3724.88 374.489 3738.76 370.671 3753.91 370.885C3771.97 371.143 3788.6 375.724 3803.12 386.927C3805.65 388.881 3806.56 390.552 3804.68 393.613C3802.09 397.82 3800.09 402.385 3797.69 406.711C3793.92 413.483 3789.95 414.275 3782.98 411.023C3775.09 407.344 3767.09 403.525 3758.72 401.403C3753.61 400.108 3747.57 401.224 3742.23 402.457C3734.22 404.305 3729.44 409.828 3728.05 418.121C3726.59 426.801 3730.45 432.895 3737.79 436.583C3744.17 439.787 3751 442.124 3757.7 444.657C3764.27 447.141 3771 449.18 3777.52 451.775C3807.96 463.891 3815 488.752 3806.11 516.211C3798.22 540.567 3779.52 552.299 3755 554.784C3730.76 557.243 3708.84 550.441 3689.7 535.177C3688.36 534.105 3687.19 532.821 3685.81 531.513Z" fill="white"/>
<path d="M2780.67 319.262C2781.64 319.432 2782.4 319.681 2783.16 319.681C2797.08 319.69 2811.01 320.093 2824.91 319.568C2854.28 318.457 2874.14 303.346 2881.9 276.245C2886.98 258.48 2886.96 240.486 2881.46 222.797C2873.73 197.93 2856.62 183.442 2830.75 181.228C2814.4 179.828 2797.83 180.896 2781.36 180.886C2781.12 180.886 2780.89 181.277 2780.67 181.462V319.262ZM2756.58 339.202V161.396C2757.47 161.209 2758.07 160.968 2758.68 160.97C2782.82 161.112 2807.01 160.382 2831.1 161.628C2874.29 163.862 2905.42 194.941 2909.45 237.982C2911.17 256.312 2909.56 274.105 2901.91 290.976C2889.19 319.032 2866.81 334.912 2836.71 337.937C2815.48 340.068 2793.92 338.912 2772.5 339.192C2767.27 339.261 2762.03 339.202 2756.58 339.202Z" fill="white"/>
<path d="M2710.55 339.171C2706 339.171 2701.66 339.945 2697.79 338.929C2694.57 338.088 2691.17 335.707 2689.11 333.036C2663.78 300.267 2638.69 267.316 2613.53 234.416C2605.28 223.632 2597.02 212.859 2588.1 201.212V338.957H2567.47V161.249C2572.55 161.249 2577.43 160.581 2582 161.503C2584.71 162.048 2587.43 164.704 2589.26 167.089C2621.82 209.428 2654.25 251.871 2686.71 294.284C2687.64 295.503 2688.68 296.637 2690.07 298.284V161.289H2710.55V339.171Z" fill="white"/>
<path d="M2268.86 246.838C2280.39 246.838 2291.47 247.602 2302.37 246.554C2308.96 245.919 2315.89 243.488 2321.62 240.094C2334.41 232.508 2337.69 220.004 2335.84 206.047C2334.1 192.919 2325.76 185.454 2313.34 182.3C2298.75 178.594 2283.89 180.382 2268.86 180.024V246.838ZM2318.24 260.699C2337.16 286.494 2356.2 312.439 2375.76 339.104C2367.3 339.104 2359.8 339.6 2352.42 338.852C2349.59 338.566 2346.31 335.986 2344.48 333.524C2329.56 313.336 2314.81 293.011 2300.28 272.536C2296.48 267.179 2292.04 264.488 2285.42 264.924C2280.04 265.279 2274.62 264.996 2268.67 264.996V338.927H2244.95V161.652C2245.35 161.41 2245.62 161.092 2245.89 161.098C2268.9 161.558 2291.9 161.992 2314.91 162.592C2317.58 162.662 2320.25 163.546 2322.87 164.242C2344.6 170.022 2357.25 183.363 2359.25 202.551C2361.77 226.655 2352.22 245.196 2331.82 255.29C2327.27 257.544 2322.36 259.082 2318.24 260.699Z" fill="white"/>
<path d="M3181.83 246.842C3193.33 246.842 3204.4 247.603 3215.3 246.558C3221.9 245.925 3228.81 243.49 3234.56 240.11C3247.19 232.675 3250.51 220.354 3248.89 206.55C3247.45 194.319 3240.22 186.53 3228.63 182.973C3213.36 178.285 3197.67 180.473 3181.83 179.997V246.842ZM3157.96 160.926C3166.64 160.926 3174.93 160.747 3183.22 160.966C3198.07 161.357 3212.92 161.907 3227.77 162.583C3230.6 162.711 3233.42 163.605 3236.19 164.347C3257.41 170.034 3269.99 183.219 3272.17 201.969C3274.91 225.647 3265.85 244.217 3246.14 254.562C3241.13 257.193 3235.66 258.955 3231.28 260.757C3250.09 286.421 3269.12 312.386 3288.67 339.057C3280.17 339.057 3272.53 339.565 3265.01 338.793C3262.22 338.507 3259.06 335.725 3257.21 333.231C3242.4 313.159 3227.75 292.963 3213.31 272.622C3209.53 267.294 3205.14 264.478 3198.48 264.925C3193.1 265.286 3187.67 264.998 3181.7 264.998V338.885H3157.96V160.926Z" fill="white"/>
<path d="M2205.7 181.559C2203.54 185.051 2201.66 188.198 2199.67 191.272C2196.28 196.523 2193.44 197.359 2188.08 193.867C2178.86 187.871 2169.22 183.016 2158.26 181.342C2133.25 177.523 2110.29 180.99 2092.57 201.131C2083.75 211.147 2079.37 223.27 2077.69 236.395C2075.79 251.334 2076.36 266.095 2081.59 280.39C2090.38 304.382 2108.01 317.355 2132.9 320.844C2149.79 323.212 2166.02 320.812 2181.44 313.255C2184.34 311.836 2185.73 310.323 2185.65 306.827C2185.39 295.478 2185.55 284.119 2185.55 272.002H2168.82C2166.1 272.002 2163.38 272.011 2160.66 271.999C2153.93 271.97 2152.82 270.878 2152.81 264.266C2152.8 260.931 2152.8 257.598 2152.8 253.934H2207.12C2207.22 255.214 2207.4 256.582 2207.4 257.95C2207.42 277.948 2207.48 297.947 2207.31 317.943C2207.29 319.842 2206.32 322.448 2204.9 323.512C2171.12 348.643 2113.58 346.891 2081.66 319.708C2062.05 303.015 2053.5 280.931 2052.24 255.818C2051.09 233.03 2055.63 211.512 2069.42 192.775C2084.38 172.448 2105.28 162.542 2129.86 159.766C2146.09 157.931 2162.12 159.106 2177.66 164.519C2188.07 168.142 2197.22 173.859 2205.7 181.559Z" fill="white"/>
<path d="M3136.62 373.162V403.048H3128.78C3115.67 403.048 3102.55 403.188 3089.44 402.965C3085.5 402.897 3084.23 404.006 3084.29 408.045C3084.53 421.954 3084.38 435.87 3084.38 449.784V547.18V553.056H3047.15V546.705C3047.15 500.805 3047.07 454.908 3047.27 409.009C3047.29 404.082 3045.97 402.812 3041.14 402.932C3027.55 403.265 3013.95 403.048 3000.36 403.048H2994.92V373.162H3136.62Z" fill="white"/>
<path d="M2460.31 186.54C2449.55 214.747 2438.52 243.659 2427.43 272.717H2493.1C2481.98 243.491 2471.02 214.695 2460.31 186.54ZM2543.26 339.203C2537.1 339.203 2531.67 339.023 2526.25 339.253C2520.96 339.479 2517.94 337.021 2516.13 332.26C2511.38 319.723 2506.34 307.292 2501.76 294.696C2500.48 291.187 2498.72 290.293 2495.17 290.319C2471.98 290.483 2448.8 290.527 2425.61 290.289C2421.46 290.247 2419.86 291.735 2418.52 295.392C2414.03 307.681 2409.06 319.796 2404.47 332.056C2402.6 337.076 2399.44 339.476 2394 339.251C2388.62 339.028 2383.23 339.203 2377.23 339.203C2380.96 329.791 2384.47 320.923 2388 312.064C2407.44 263.279 2426.94 214.517 2446.21 165.671C2447.73 161.837 2449.62 160.581 2453.53 160.852C2458.14 161.171 2462.82 161.212 2467.43 160.839C2471.27 160.527 2472.99 161.939 2474.39 165.489C2488.36 200.985 2502.53 236.404 2516.64 271.847C2525.02 292.905 2533.4 313.967 2541.77 335.029C2542.23 336.192 2542.62 337.384 2543.26 339.203Z" fill="white"/>
<path d="M3517.32 339.152C3508.69 339.152 3500.73 339.579 3492.86 338.892C3490.5 338.686 3487.8 335.767 3486.29 333.424C3471.55 310.59 3457.04 287.612 3442.46 264.678C3441.6 263.336 3440.72 262.015 3439.92 260.799C3424.05 284.679 3408.14 308.408 3392.52 332.332C3389.3 337.26 3385.79 339.892 3379.66 339.312C3374.15 338.791 3368.54 339.202 3361.98 339.202C3382.58 308.296 3402.74 278.059 3422.98 247.703C3403.6 219.006 3384.32 190.459 3364.58 161.234C3373.75 161.234 3382.01 160.926 3390.21 161.462C3392.13 161.587 3394.32 164.271 3395.63 166.272C3409.66 187.659 3423.54 209.148 3437.47 230.603C3438.42 232.067 3439.44 233.486 3440.25 234.668C3455.84 211.416 3471.35 188.192 3487.04 165.087C3488.25 163.302 3490.62 161.311 3492.56 161.188C3499.85 160.728 3507.18 161.004 3515.36 161.004C3514.07 163.06 3513.23 164.494 3512.29 165.859C3494.72 191.424 3477.21 217.032 3459.47 242.476C3457.23 245.686 3457.4 247.71 3459.47 250.826C3477.85 278.54 3496.05 306.375 3514.29 334.18C3515.22 335.596 3516.06 337.074 3517.32 339.152Z" fill="white"/>
<path d="M3033.06 179.478V254.36C3047.86 253.378 3062.55 253.875 3076.6 251.104C3095.07 247.459 3104.12 232.875 3103.19 212.856C3102.41 195.952 3092.08 183.848 3074.05 181.412C3060.71 179.61 3047.06 180.054 3033.06 179.478ZM3032.78 272.678V338.839H3009.07V161.49C3034.1 160.999 3058.97 158.632 3083.42 163.34C3111.81 168.806 3126.95 187.304 3127.24 214.524C3127.54 243.179 3112.05 263.992 3084.03 269.728C3070.88 272.42 3057.05 271.839 3043.52 272.648C3040.2 272.847 3036.86 272.678 3032.78 272.678Z" fill="white"/>
<path d="M1981.67 545.127H1965.77V153.982H1981.67V545.127Z" fill="white"/>
<path d="M3336.86 338.956H3313.38V161.207H3336.86V338.956Z" fill="white"/>
</g>
</g>
</g>
<defs>
<clipPath id="clip0_1482_8">
<rect width="3840" height="672" fill="white"/>
</clipPath>
</defs>
</svg>
