<svg width="3840" height="672" viewBox="0 0 3840 672" fill="none" xmlns="http://www.w3.org/2000/svg">
<g clip-path="url(#clip0_1483_8)">
<mask id="mask0_1483_8" style="mask-type:luminance" maskUnits="userSpaceOnUse" x="-66" y="-6" width="3906" height="684">
<path d="M3840 -6H-66V677.55H3840V-6Z" fill="white"/>
</mask>
<g mask="url(#mask0_1483_8)">
<mask id="mask1_1483_8" style="mask-type:luminance" maskUnits="userSpaceOnUse" x="-66" y="-6" width="3906" height="684">
<path d="M-66 -6H3840V677.55H-66V-6Z" fill="white"/>
</mask>
<g mask="url(#mask1_1483_8)">
<path d="M647.304 410.318V550.584H534.155V317.225H540.918C650.774 317.225 760.627 317.154 870.48 317.396C877.287 317.412 881.2 313.552 885.68 310.04C886.619 309.303 886.681 307.102 886.686 305.574C886.753 288.976 886.729 272.375 886.728 255.775C886.726 249.823 879.983 242.874 873.94 242.613C872.803 242.565 871.662 242.602 870.523 242.602H125.956H118.935V458.037H358.531V398.155H220.813V317.225H472.338C472.338 370.933 472.338 419.003 472.338 472.71C472.338 506.858 455.027 531.915 422.96 544.034C411.299 548.442 399.196 550.873 386.724 550.879C288.098 550.928 189.475 550.968 90.8494 550.845C72.7059 550.822 55.3099 546.984 39.3991 537.862C17.5184 525.318 6.02687 506.353 5.91295 481.123C5.67564 428.556 5.8154 375.988 5.80452 323.422C5.79913 291.687 5.8032 259.95 5.80452 228.214C5.80452 185.696 27.1397 160.007 69.1498 152.62C78.0695 151.05 87.2537 150.342 96.3168 150.338C377.38 150.221 658.444 150.282 939.508 150.16C959.803 150.152 973.637 161.04 985.741 175.35C995.293 186.648 1000.07 199.452 999.84 214.734C999.26 253.622 999.677 292.525 999.636 331.421C999.616 343.673 998.538 355.783 994.123 367.385C984.521 392.605 965.459 405.559 939.469 409.277C933.541 410.127 927.475 410.271 921.472 410.275C832.123 410.336 742.776 410.318 653.427 410.318H647.304Z" fill="#CF212A"/>
<path d="M1527.32 317.466C1527.32 319.83 1527.32 315.543 1527.32 317.466V473.164C1527.32 507.729 1510.13 532.454 1477.6 544.609C1466.08 548.92 1454.13 551.281 1441.83 551.288C1343.04 551.338 1244.25 551.399 1145.47 551.235C1126.64 551.205 1108.67 546.981 1092.42 536.986C1072.31 524.611 1061.37 506.634 1061.25 482.931C1060.97 424.669 1061.09 366.404 1061.06 308.14C1061.04 280.635 1061.02 253.13 1061.07 225.625C1061.12 189.45 1078.35 166.359 1113.03 155.715C1125.29 151.953 1137.83 150.645 1150.6 150.646C1382.51 150.659 1614.42 150.656 1846.34 150.655C1847.8 150.655 1849.25 150.656 1851.08 150.656V242.985H1698.41V551.097H1585.73V243.325H1174.06V458.388H1413.7V398.642H1275.98V317.466H1527.32Z" fill="#3D3A3A"/>
<path d="M2422.63 486.806H2476.53C2467.38 460.689 2458.4 435.059 2449.53 409.715C2445.14 422.356 2440.71 435.23 2436.22 448.087C2431.76 460.903 2427.23 473.703 2422.63 486.806ZM2254.19 459.936C2262.83 459.936 2271.01 460.502 2279.05 459.737C2284.42 459.228 2290.02 457.616 2294.77 455.097C2306.1 449.091 2309.16 438.474 2308.29 426.51C2307.54 416.167 2302.21 408.866 2292.37 405.161C2279.95 400.483 2267.11 402.931 2254.19 402.189V459.936ZM2539.88 556.673C2529.16 556.673 2518.79 556.975 2508.44 556.551C2502.83 556.32 2499.59 552.256 2497.78 547.124C2494.26 537.17 2490.64 527.254 2487.29 517.244C2486.37 514.485 2485.12 513.455 2482.15 513.471C2460.35 513.593 2438.54 513.585 2416.74 513.476C2414.01 513.463 2412.72 514.348 2411.86 516.935C2408.6 526.635 2405.17 536.272 2401.74 545.909C2398.83 554.074 2395.02 556.801 2386.52 556.814C2367.48 556.844 2348.45 556.699 2329.42 556.885C2321.84 556.958 2316.54 554.11 2312.58 547.512C2302.48 530.639 2291.68 514.176 2281.8 497.178C2277.3 489.433 2271.54 485.902 2262.75 486.822C2260.05 487.103 2257.32 486.866 2254.15 486.866V556.463H2216.55V373.907C2216.85 373.687 2216.99 373.504 2217.12 373.506C2243.26 373.968 2269.4 374.312 2295.54 375.048C2299.99 375.171 2304.47 376.716 2308.8 378.073C2329.4 384.549 2342.8 397.591 2345.06 419.814C2347.3 441.826 2339.83 459.8 2321.04 472.285C2317.01 474.962 2312.48 476.881 2308.05 479.213C2322.08 489.962 2328.67 506.463 2338.52 520.552C2345.86 531.058 2352.5 542.055 2359.89 553.518C2360.84 551.256 2361.52 549.673 2362.15 548.064C2384.25 491.317 2406.39 434.579 2428.39 377.791C2429.69 374.435 2431.19 373.026 2434.97 373.137C2445.05 373.437 2455.14 373.324 2465.23 373.183C2467.86 373.145 2469.27 373.825 2470.28 376.429C2493.13 435.5 2516.07 494.536 2538.98 553.585C2539.31 554.456 2539.51 555.381 2539.88 556.673Z" fill="#3D3A3A"/>
<path d="M2789.7 526.687C2802.77 526.687 2815.31 527.338 2827.75 526.543C2849.37 525.158 2864.29 513.747 2871.63 493.419C2878.36 474.774 2878.33 455.71 2871.75 436.99C2864.99 417.768 2851.12 406.106 2830.95 403.892C2817.6 402.429 2803.99 403.435 2790.51 403.368C2790.26 403.365 2790.03 403.763 2789.7 404.052V526.687ZM2751.53 556.515V373.626C2752.8 373.484 2753.9 373.257 2754.99 373.257C2778.25 373.249 2801.51 372.964 2824.76 373.361C2848.66 373.768 2870.27 380.994 2887.86 397.704C2908.12 416.961 2916 441.266 2915.05 468.724C2913.44 514.779 2885.53 547.04 2840.29 555.324C2837.26 555.878 2834.16 556.454 2831.1 556.463C2804.78 556.553 2778.44 556.515 2751.53 556.515Z" fill="#3D3A3A"/>
<path d="M2680.54 495.169V373.51H2713.37V556.412C2705.49 556.412 2697.49 557.216 2689.77 556.066C2686.03 555.511 2682.09 551.895 2679.51 548.648C2651.36 513.064 2623.44 477.281 2595.47 441.551C2593.89 439.532 2592.3 437.526 2590.12 434.776V556.49H2557.31V373.768C2565.64 373.768 2574.07 373.094 2582.3 374.108C2585.47 374.498 2588.68 378.319 2591.01 381.261C2615.24 411.869 2639.28 442.616 2663.38 473.324C2668.89 480.343 2674.41 487.359 2680.54 495.169Z" fill="#3D3A3A"/>
<path d="M3224.69 403.271C3198.48 403.333 3179.99 416.876 3173.03 441.581C3171.42 447.32 3170.11 453.423 3170.26 459.321C3170.51 469.156 3170.77 479.299 3173.27 488.712C3180.02 514.06 3199.35 527.18 3227 526.669C3252.22 526.204 3270.57 511.877 3277.04 487.497C3280.12 475.875 3280.39 464.099 3279.02 452.177C3275.54 421.929 3254.83 403.198 3224.69 403.271ZM3318.44 472.574C3317.63 498.798 3305.78 526.33 3277.02 544.547C3236.3 570.325 3178.81 560.833 3150.29 524.385C3117.8 482.847 3123.3 399.989 3190.99 377.052C3227.71 364.609 3262.48 369.866 3291.71 397.249C3309.6 413.996 3318.88 439.171 3318.44 472.574Z" fill="#3D3A3A"/>
<path d="M3571.28 459.695C3580.67 459.695 3589.46 460.179 3598.15 459.5C3602.85 459.133 3607.72 457.381 3611.97 455.202C3622.23 449.933 3627.19 438.349 3625.56 425.189C3624.21 414.463 3617.62 406.206 3606.08 404.201C3594.86 402.253 3583.28 402.381 3571.68 401.585C3571.46 403.844 3571.3 404.79 3571.29 405.734C3571.28 423.61 3571.28 441.484 3571.28 459.695ZM3533.9 372.34C3561.01 373.278 3587.63 374.104 3614.24 375.223C3618.05 375.382 3621.86 376.77 3625.58 377.91C3646.85 384.436 3660.49 397.862 3662.46 420.741C3664.43 443.641 3655.95 461.77 3635.88 473.81C3632.56 475.807 3628.92 477.293 3625.48 478.994C3641.41 492.964 3649.65 512.601 3661.63 529.548C3667.69 538.124 3673.08 547.18 3679.11 556.561C3666.06 556.561 3653.77 556.825 3641.5 556.43C3636.5 556.271 3633.13 552.705 3630.52 548.429C3620.26 531.644 3609.47 515.167 3599.69 498.111C3594.85 489.673 3588.78 485.687 3579.19 486.822C3576.82 487.103 3574.39 486.865 3571.51 486.865V556.413H3533.9V372.34Z" fill="#3D3A3A"/>
<path d="M2185.57 395.939C2181.72 401.831 2178.03 407.936 2173.87 413.704C2170.44 418.443 2165.74 418.541 2159.46 415.539C2151.59 411.775 2143.73 407.659 2135.42 405.242C2124.54 402.084 2113.17 402.243 2102.1 405.025C2080.02 410.572 2064.47 429.055 2062.53 453.378C2061.71 463.624 2061.79 474.345 2063.88 484.35C2069.92 513.397 2092.9 530.59 2122.71 528.869C2130.99 528.39 2139.15 525.565 2147.35 523.756C2150.06 523.157 2151.19 521.579 2151.11 518.556C2150.89 509.787 2151.03 501.008 2151.03 491.4C2144.73 491.4 2138.63 491.412 2132.54 491.396C2124.36 491.374 2122.62 489.606 2122.61 481.319C2122.6 475.492 2122.61 469.665 2122.61 463.527H2185.07C2185.15 465.292 2185.29 466.872 2185.29 468.452C2185.3 490.416 2185.18 512.379 2185.4 534.34C2185.44 538.152 2184.06 540.17 2181.07 542.125C2159.25 556.347 2135.16 560.524 2109.69 558.26C2087.87 556.321 2068.09 548.99 2051.87 533.965C2027.27 511.192 2019.81 482.27 2023.95 449.995C2028.05 418.025 2044.36 394.22 2073.92 380.401C2091.9 371.996 2111.02 369.99 2130.63 371.877C2149.52 373.692 2166.73 379.802 2181.58 391.881C2182.59 392.7 2183.57 393.561 2184.52 394.448C2184.85 394.763 2185.07 395.209 2185.57 395.939Z" fill="#3D3A3A"/>
<path d="M3459.88 373.488H3497.59C3497.66 374.815 3497.77 375.911 3497.77 377.01C3497.77 413.287 3498.11 449.571 3497.61 485.841C3497.29 509.651 3488.47 529.954 3468.8 544.445C3452.43 556.501 3433.62 559.729 3413.78 558.661C3379.52 556.816 3353.65 535.678 3346.03 502.875C3344.57 496.589 3343.77 490.009 3343.73 483.557C3343.52 448.095 3343.62 412.63 3343.62 377.164C3343.62 376.056 3343.74 374.945 3343.83 373.551H3381.54V378.733C3381.54 412.57 3381.45 446.409 3381.62 480.245C3381.65 486.05 3382.14 491.999 3383.49 497.623C3388.05 516.672 3402.48 527.069 3422.61 526.433C3441.39 525.837 3455.15 514.187 3458.61 495.479C3459.56 490.404 3459.8 485.141 3459.83 479.963C3459.93 446.451 3459.88 412.939 3459.88 379.427V373.488Z" fill="#3D3A3A"/>
<path d="M3683.16 534.649C3686.9 528.586 3690.33 522.69 3694.11 517.024C3697.87 511.375 3703.11 510.591 3709.43 514.215C3715.9 517.925 3722.18 522.085 3728.97 525.088C3738.17 529.159 3747.97 529.282 3757.62 526.47C3766.66 523.839 3771.7 517.601 3773 508.29C3774.36 498.633 3770.91 491.166 3762.22 486.852C3756.3 483.914 3749.9 481.913 3743.64 479.681C3736.16 477.006 3728.56 474.655 3721.09 471.95C3682.4 457.941 3681.48 405.62 3710.37 384.209C3722.9 374.927 3737.02 371.043 3752.43 371.261C3770.8 371.523 3787.72 376.183 3802.49 387.578C3805.06 389.566 3805.99 391.266 3804.07 394.379C3801.44 398.659 3799.4 403.302 3796.96 407.702C3793.13 414.591 3789.09 415.396 3782 412.088C3773.97 408.346 3765.84 404.462 3757.32 402.303C3752.13 400.986 3745.98 402.121 3740.55 403.375C3732.4 405.255 3727.54 410.873 3726.13 419.308C3724.64 428.138 3728.57 434.336 3736.03 438.088C3742.52 441.347 3749.47 443.724 3756.29 446.301C3762.97 448.827 3769.81 450.901 3776.45 453.541C3807.41 465.865 3814.57 491.153 3805.53 519.084C3797.5 543.859 3778.48 555.793 3753.54 558.32C3728.88 560.822 3706.59 553.903 3687.12 538.376C3685.75 537.286 3684.56 535.98 3683.16 534.649Z" fill="#3D3A3A"/>
<path d="M2762.46 318.75C2763.45 318.923 2764.22 319.176 2765 319.176C2779.15 319.185 2793.32 319.595 2807.46 319.061C2837.34 317.931 2857.54 302.56 2865.43 274.994C2870.6 256.923 2870.58 238.62 2864.99 220.627C2857.12 195.333 2839.72 180.596 2813.4 178.343C2796.77 176.919 2779.92 178.006 2763.16 177.996C2762.92 177.996 2762.69 178.393 2762.46 178.581V318.75ZM2737.96 339.033V158.171C2738.86 157.98 2739.47 157.735 2740.09 157.737C2764.65 157.882 2789.26 157.139 2813.76 158.407C2857.69 160.679 2889.36 192.292 2893.46 236.073C2895.21 254.718 2893.57 272.817 2885.79 289.978C2872.85 318.516 2850.08 334.669 2819.47 337.746C2797.87 339.914 2775.94 338.738 2754.15 339.022C2748.83 339.093 2743.5 339.033 2737.96 339.033Z" fill="#3D3A3A"/>
<path d="M2691.14 339.001C2686.51 339.001 2682.1 339.788 2678.16 338.755C2674.88 337.899 2671.43 335.478 2669.33 332.761C2643.57 299.428 2618.04 265.911 2592.45 232.446C2584.06 221.476 2575.66 210.518 2566.58 198.671V338.783H2545.6V158.021C2550.77 158.021 2555.73 157.342 2560.38 158.279C2563.14 158.834 2565.9 161.535 2567.76 163.961C2600.88 207.028 2633.87 250.201 2666.89 293.343C2667.84 294.583 2668.89 295.736 2670.31 297.411V158.062H2691.14V339.001Z" fill="#3D3A3A"/>
<path d="M2241.86 245.081C2253.58 245.081 2264.85 245.858 2275.94 244.792C2282.65 244.146 2289.69 241.673 2295.52 238.221C2308.53 230.505 2311.87 217.786 2309.99 203.589C2308.22 190.235 2299.73 182.642 2287.1 179.434C2272.26 175.664 2257.14 177.483 2241.86 177.119V245.081ZM2292.08 259.18C2311.33 285.419 2330.7 311.809 2350.59 338.933C2341.99 338.933 2334.36 339.437 2326.85 338.676C2323.97 338.385 2320.64 335.761 2318.78 333.257C2303.6 312.722 2288.6 292.048 2273.82 271.221C2269.95 265.772 2265.43 263.034 2258.7 263.478C2253.23 263.839 2247.72 263.551 2241.66 263.551V338.753H2217.54V158.431C2217.94 158.185 2218.22 157.861 2218.49 157.867C2241.9 158.335 2265.29 158.777 2288.7 159.387C2291.41 159.458 2294.13 160.357 2296.79 161.065C2318.9 166.945 2331.77 180.515 2333.8 200.033C2336.36 224.551 2326.65 243.411 2305.9 253.678C2301.27 255.971 2296.28 257.535 2292.08 259.18Z" fill="#3D3A3A"/>
<path d="M3170.52 245.086C3182.22 245.086 3193.48 245.86 3204.56 244.797C3211.28 244.153 3218.31 241.676 3224.15 238.238C3237 230.675 3240.38 218.143 3238.73 204.101C3237.27 191.66 3229.91 183.737 3218.12 180.119C3202.59 175.351 3186.63 177.576 3170.52 177.092V245.086ZM3146.24 157.693C3155.07 157.693 3163.5 157.511 3171.93 157.734C3187.04 158.132 3202.14 158.691 3217.25 159.379C3220.13 159.509 3223 160.418 3225.81 161.173C3247.4 166.958 3260.19 180.369 3262.41 199.442C3265.2 223.527 3255.98 242.416 3235.93 252.939C3230.84 255.615 3225.27 257.407 3220.82 259.24C3239.95 285.345 3259.31 311.756 3279.19 338.886C3270.55 338.886 3262.78 339.402 3255.13 338.617C3252.29 338.326 3249.08 335.496 3247.19 332.96C3232.13 312.543 3217.23 292 3202.54 271.309C3198.69 265.889 3194.23 263.025 3187.45 263.48C3181.98 263.847 3176.46 263.554 3170.39 263.554V338.711H3146.24V157.693Z" fill="#3D3A3A"/>
<path d="M2177.61 178.68C2175.41 182.232 2173.5 185.433 2171.48 188.56C2168.03 193.901 2165.14 194.752 2159.69 191.2C2150.31 185.1 2140.5 180.162 2129.35 178.459C2103.91 174.575 2080.56 178.101 2062.53 198.588C2053.56 208.777 2049.11 221.108 2047.4 234.458C2045.47 249.654 2046.05 264.669 2051.37 279.21C2060.31 303.614 2078.24 316.81 2103.56 320.359C2120.74 322.768 2137.25 320.326 2152.93 312.639C2155.88 311.196 2157.3 309.657 2157.21 306.101C2156.95 294.557 2157.11 283.003 2157.11 270.677H2140.1C2137.33 270.677 2134.56 270.687 2131.8 270.674C2124.95 270.645 2123.82 269.534 2123.81 262.808C2123.8 259.416 2123.8 256.026 2123.8 252.299H2179.05C2179.16 253.601 2179.34 254.992 2179.34 256.384C2179.36 276.726 2179.42 297.068 2179.25 317.408C2179.23 319.34 2178.24 321.99 2176.8 323.073C2142.43 348.636 2083.91 346.854 2051.44 319.203C2031.49 302.223 2022.79 279.76 2021.51 254.215C2020.34 231.036 2024.96 209.148 2038.99 190.089C2054.2 169.412 2075.46 159.336 2100.47 156.512C2116.97 154.646 2133.28 155.841 2149.09 161.347C2159.68 165.032 2168.98 170.848 2177.61 178.68Z" fill="#3D3A3A"/>
<path d="M3124.53 373.576V403.976H3116.56C3103.22 403.976 3089.87 404.118 3076.54 403.891C3072.53 403.822 3071.24 404.95 3071.3 409.059C3071.54 423.207 3071.39 437.362 3071.39 451.515V550.585V556.562H3033.52V550.102C3033.52 503.413 3033.44 456.727 3033.64 410.039C3033.66 405.028 3032.32 403.736 3027.41 403.858C3013.59 404.197 2999.75 403.976 2985.93 403.976H2980.39V373.576H3124.53Z" fill="#3D3A3A"/>
<path d="M2436.6 183.746C2425.65 212.438 2414.43 241.847 2403.15 271.404H2469.95C2458.64 241.676 2447.49 212.385 2436.6 183.746ZM2520.97 339.033C2514.71 339.033 2509.18 338.85 2503.67 339.084C2498.29 339.314 2495.22 336.813 2493.38 331.971C2488.55 319.218 2483.42 306.573 2478.76 293.761C2477.46 290.192 2475.67 289.282 2472.06 289.309C2448.47 289.476 2424.89 289.52 2401.3 289.278C2397.08 289.236 2395.45 290.749 2394.09 294.469C2389.52 306.969 2384.47 319.292 2379.8 331.763C2377.9 336.869 2374.68 339.311 2369.15 339.082C2363.68 338.855 2358.19 339.033 2352.09 339.033C2355.88 329.459 2359.45 320.439 2363.04 311.427C2382.82 261.804 2402.65 212.204 2422.26 162.518C2423.8 158.618 2425.72 157.341 2429.7 157.617C2434.39 157.941 2439.15 157.983 2443.84 157.603C2447.75 157.286 2449.5 158.722 2450.92 162.333C2465.13 198.439 2479.54 234.467 2493.9 270.519C2502.42 291.939 2510.94 313.363 2519.46 334.787C2519.93 335.97 2520.32 337.183 2520.97 339.033Z" fill="#3D3A3A"/>
<path d="M3511.77 338.981C3503 338.981 3494.9 339.415 3486.89 338.716C3484.49 338.507 3481.75 335.538 3480.21 333.154C3465.22 309.928 3450.46 286.555 3435.63 263.227C3434.75 261.862 3433.86 260.518 3433.04 259.281C3416.9 283.572 3400.72 307.709 3384.83 332.044C3381.55 337.056 3377.98 339.734 3371.75 339.144C3366.14 338.614 3360.44 339.032 3353.76 339.032C3374.72 307.595 3395.22 276.838 3415.81 245.96C3396.1 216.77 3376.49 187.732 3356.41 158.005C3365.74 158.005 3374.14 157.692 3382.48 158.237C3384.43 158.364 3386.66 161.094 3387.99 163.13C3402.26 184.884 3416.38 206.743 3430.55 228.566C3431.52 230.055 3432.56 231.499 3433.38 232.701C3449.24 209.049 3465.01 185.426 3480.97 161.924C3482.2 160.109 3484.61 158.083 3486.59 157.958C3494 157.49 3501.46 157.771 3509.78 157.771C3508.47 159.862 3507.61 161.321 3506.66 162.709C3488.79 188.714 3470.97 214.762 3452.93 240.643C3450.65 243.909 3450.82 245.967 3452.93 249.137C3471.63 277.327 3490.14 305.641 3508.69 333.923C3509.64 335.364 3510.49 336.867 3511.77 338.981Z" fill="#3D3A3A"/>
<path d="M3019.19 176.563V252.732C3034.25 251.733 3049.19 252.239 3063.48 249.42C3082.27 245.712 3091.47 230.878 3090.53 210.515C3089.73 193.32 3079.23 181.008 3060.89 178.53C3047.32 176.697 3033.43 177.149 3019.19 176.563ZM3018.91 271.365V338.663H2994.79V158.266C3020.25 157.766 3045.55 155.359 3070.42 160.148C3099.29 165.708 3114.7 184.523 3114.99 212.211C3115.3 241.359 3099.54 262.529 3071.04 268.364C3057.66 271.102 3043.59 270.511 3029.83 271.334C3026.45 271.537 3023.06 271.365 3018.91 271.365Z" fill="#3D3A3A"/>
<path d="M1949.73 548.497H1933.56V150.629H1949.73V548.497Z" fill="#3D3A3A"/>
<path d="M3328.21 338.783H3304.33V157.979H3328.21V338.783Z" fill="#3D3A3A"/>
</g>
</g>
</g>
<defs>
<clipPath id="clip0_1483_8">
<rect width="3840" height="672" fill="white"/>
</clipPath>
</defs>
</svg>
